# xmcd
#
# Track frame offsets: 
#        150
#        16964
#        33548
#        49419
#        65799
#        79043
#        93473
#        113409
#        125600
#        142650
#        160407
#        178662
#        196447
#        211635
#        235427
#
# Disc length: 3384 seconds
#
# Revision: 0
# Processed by: cddbd v1.5.2PL0 Copyright (c) Steve Scherf et al.
# Submitted via: ExactAudioCopyFreeDBPlugin 1.0
#
DISCID=cd0d360f
DTITLE=Wolfgang Tost - Hoffnung ohne Ende
DYEAR=2009
DGENRE=Christian Rock
TTITLE0=Keine Furcht
TTITLE1=Für dich gebetet
TTITLE2=Kerzen entzünden 
TTITLE3=Gott gibt uns Mut
TTITLE4=Möglich bei Gott
TTITLE5=Ganz-gern-gleich
TTITLE6=Keiner mehr
TTITLE7=Kreuz im Kreuz
TTITLE8=Seit zweitausend Jahren
TTITLE9=Zu dir
TTITLE10=Am Ende Hoffnung
TTITLE11=Und wenn du denkst-sagst-meinst
TTITLE12=Chamäleon
TTITLE13=Verzeihen
TTITLE14=Immer und überall
EXTD=
EXTT0=
EXTT1=
EXTT2=
EXTT3=
EXTT4=
EXTT5=
EXTT6=
EXTT7=
EXTT8=
EXTT9=
EXTT10=
EXTT11=
EXTT12=
EXTT13=
EXTT14=
PLAYORDER=
